<?xml version="1.0" encoding="UTF-8"?><svg xmlns="http://www.w3.org/2000/svg" viewBox="0 0 392.46 174.38"><defs><style>.d{fill:#fff;}.e{fill:#fcb912;}</style></defs><g id="a"/><g id="b"><g id="c"><g><g><g><path class="e" d="M14.16,159.2c.14-.31,.28-.62,.42-.93,.05-.07,.13-.12,.23-.14s.21-.03,.32-.03c.21,0,.36,.02,.44,.05s.13,.11,.13,.23c0,.03,0,.06-.01,.1s-.02,.07-.03,.08h0c-.2,.48-.41,.97-.61,1.46-.2,.49-.41,.97-.61,1.47,.49,1.19,.98,2.4,1.48,3.63,.5,1.23,1,2.44,1.49,3.63,.19-.45,.39-.95,.62-1.5,.23-.55,.46-1.13,.71-1.74,.25-.6,.5-1.23,.76-1.87,.25-.64,.51-1.27,.76-1.89s.49-1.22,.73-1.8c.24-.57,.45-1.11,.65-1.6,.03-.05,.08-.09,.14-.13s.15-.06,.23-.08c.08-.02,.17-.03,.27-.04s.18,0,.26,0c.1,0,.18,.03,.23,.08,.05,.05,.08,.12,.08,.19,0,.03,0,.06-.02,.1,0,.04-.02,.06-.02,.07l-4.88,11.85c-.03,.05-.07,.1-.13,.13-.06,.04-.14,.05-.24,.05h-.32c-.09,0-.17-.03-.23-.07-.06-.05-.09-.11-.09-.17-.51-1.24-1.02-2.46-1.53-3.68-.51-1.22-1.01-2.44-1.53-3.68-.22,.54-.45,1.1-.69,1.68-.24,.58-.47,1.15-.71,1.73s-.48,1.16-.71,1.74-.47,1.14-.69,1.68l-.24,.58c-.07,.12-.19,.19-.38,.19h-.32c-.08,0-.16-.03-.23-.07-.07-.05-.1-.11-.1-.17l-4.9-11.79s-.02-.08-.02-.16c0-.13,.06-.21,.17-.23,.11-.03,.26-.03,.44-.03,.13,0,.24,.01,.35,.04s.18,.08,.22,.18c.2,.49,.41,1.02,.65,1.59s.48,1.17,.73,1.79,.51,1.25,.77,1.9c.26,.64,.51,1.27,.77,1.88,.25,.61,.49,1.19,.72,1.75,.22,.55,.43,1.06,.62,1.51,.42-1.02,.92-2.25,1.5-3.69,.57-1.44,1.24-3.09,1.98-4.93h-.01c.13-.32,.27-.62,.41-.94Z"/><path class="e" d="M33.63,154.49c0-.13,.02-.23,.05-.3,.03-.08,.11-.13,.22-.14h.72c.13,.01,.21,.06,.24,.14,.03,.08,.05,.18,.05,.3v.38c0,.19-.03,.31-.09,.36-.06,.05-.18,.08-.36,.08h-.35c-.17,0-.3-.03-.37-.07s-.11-.13-.11-.24v-.5Zm.06,3.95c0-.21,.11-.32,.31-.32h.52c.21,0,.32,.11,.32,.32v11.82c0,.21-.1,.32-.31,.32h-.51c-.22,0-.33-.11-.33-.32v-11.82Z"/><path class="e" d="M51.23,170.1c0,.06,0,.11,0,.15v.21c0,.06-.03,.11-.07,.14-.05,.03-.11,.06-.17,.08-.07,.02-.14,.03-.2,.04-.07,0-.12,0-.16,0-.35,0-.69-.05-1.01-.14-.32-.09-.6-.23-.84-.43-.24-.2-.43-.46-.57-.77-.14-.32-.21-.7-.21-1.14v-9.1h-1.7c-.11,0-.19-.03-.25-.07-.05-.04-.08-.12-.08-.24v-.46c0-.11,.03-.19,.08-.23,.05-.04,.14-.06,.25-.06h1.7v-3.1c0-.07,.03-.12,.08-.16,.03-.02,.05-.04,.09-.05,0,0,.02-.01,.07-.03,.05-.03,.11-.05,.19-.08s.14-.05,.22-.07c.08-.03,.13-.03,.17-.03,.13,0,.22,.03,.26,.1,.04,.06,.06,.15,.06,.27v3.16h2.21c.22,0,.32,.11,.32,.32v.39c0,.23-.11,.35-.32,.35h-2.21v8.32c0,.29,0,.56,.03,.81,.02,.26,.07,.48,.14,.68s.17,.35,.31,.46,.32,.17,.55,.17h.22c.2,0,.35,0,.46,.03,.11,.02,.19,.05,.24,.1,.06,.04,.09,.1,.11,.17s.02,.15,.02,.23v-.03Z"/><path class="e" d="M71.85,163.11c-.02-.51-.12-1.01-.3-1.5s-.43-.92-.75-1.3-.71-.69-1.17-.92c-.46-.24-.98-.35-1.57-.35-.51,0-1.01,.09-1.51,.27-.49,.18-.93,.43-1.33,.77-.39,.33-.71,.73-.96,1.2-.25,.47-.38,.99-.41,1.56v7.46c0,.21-.1,.32-.3,.32h-.52c-.21,0-.31-.11-.31-.32v-15.79c0-.2,.1-.3,.3-.3h.52c.2,0,.3,.1,.3,.3v5.58h.03c.22-.33,.47-.64,.77-.91,.3-.27,.63-.5,.99-.69,.36-.19,.75-.34,1.17-.44,.41-.1,.85-.15,1.3-.15,.72,0,1.38,.14,1.98,.41,.6,.27,1.11,.65,1.54,1.13,.43,.48,.76,1.04,.99,1.68s.35,1.32,.35,2.05v7.02c0,.14-.04,.25-.11,.32s-.16,.11-.28,.11h-.36c-.15,0-.25-.03-.3-.1-.05-.06-.08-.17-.08-.32v-7.07Z"/><path class="e" d="M104.47,159.14c.11,0,.2,.03,.26,.08,.06,.05,.1,.14,.1,.26v.32c0,.12-.03,.22-.1,.28-.06,.07-.15,.1-.26,.1h-2.14v10.02c0,.13-.03,.22-.1,.28s-.15,.09-.25,.09h-.46c-.22,0-.32-.12-.32-.37v-10.02h-1.52c-.11,0-.2-.03-.26-.1-.06-.06-.1-.16-.1-.28v-.32c0-.12,.03-.21,.1-.26,.06-.05,.15-.08,.26-.08h1.52v-1.98c0-.54,.08-1.03,.26-1.46,.17-.43,.41-.81,.72-1.12,.3-.31,.67-.55,1.09-.72,.42-.16,.88-.25,1.38-.25,.12,0,.22,.03,.28,.1,.07,.07,.1,.16,.1,.27v.42c0,.11-.03,.19-.1,.25s-.15,.08-.24,.08c-.33,0-.64,.06-.92,.17-.29,.11-.54,.29-.75,.52-.21,.24-.38,.53-.5,.88-.12,.35-.18,.78-.18,1.26v1.57h2.14Z"/><path class="e" d="M125.33,169.18l-.03-.61c-.22,.33-.46,.64-.74,.9-.28,.27-.58,.5-.92,.69-.34,.19-.7,.33-1.09,.44-.4,.1-.82,.15-1.28,.15-.76,0-1.46-.14-2.1-.41-.64-.28-1.19-.65-1.65-1.12-.46-.47-.82-1.03-1.08-1.67-.26-.64-.39-1.33-.39-2.05v-7.04c0-.14,.03-.25,.11-.32s.17-.11,.3-.11h.38c.15,0,.25,.03,.3,.1,.05,.07,.08,.17,.08,.32v7.09c.01,.53,.12,1.03,.31,1.52,.2,.49,.47,.92,.83,1.3,.35,.38,.79,.68,1.29,.91,.5,.22,1.07,.34,1.7,.34,.51,0,1.01-.1,1.49-.29s.89-.46,1.26-.81c.37-.35,.66-.76,.89-1.25,.22-.48,.34-1.01,.35-1.59v-7.33c0-.21,.11-.31,.31-.31h.51c.22,0,.32,.11,.32,.31v11.82c0,.27-.12,.41-.37,.41h-.4c-.26,0-.38-.12-.38-.35v-1.05Z"/><path class="e" d="M138.54,154.65c0-.2,.11-.3,.32-.3h.51c.22,0,.32,.1,.32,.3v15.62c0,.21-.1,.31-.31,.31h-.51c-.22,0-.32-.1-.32-.31v-15.62Z"/><path class="e" d="M151.9,154.65c0-.2,.11-.3,.32-.3h.51c.22,0,.32,.1,.32,.3v15.62c0,.21-.1,.31-.31,.31h-.51c-.22,0-.32-.1-.32-.31v-15.62Z"/><path class="e" d="M180.56,158.46c0-.21,.11-.31,.32-.31h.55c.21,0,.32,.11,.32,.31v2.38c.13-.22,.27-.43,.42-.66,.15-.22,.31-.41,.49-.57,.58-.55,1.24-.97,1.98-1.27,.73-.3,1.51-.44,2.33-.44,.59,0,1.16,.08,1.71,.23,.55,.16,1.06,.37,1.54,.65,.48,.28,.92,.62,1.31,1.02,.39,.39,.73,.83,1.01,1.3,.28,.48,.5,.99,.66,1.54,.15,.55,.23,1.12,.23,1.71s-.08,1.16-.23,1.71c-.16,.55-.38,1.07-.66,1.55-.28,.48-.62,.92-1.01,1.31s-.83,.73-1.31,1.01c-.48,.28-1,.5-1.54,.66-.54,.15-1.11,.23-1.71,.23-.41,0-.82-.04-1.21-.13-.4-.08-.78-.21-1.14-.36-.37-.16-.72-.34-1.05-.56-.33-.22-.64-.46-.92-.72-.18-.19-.33-.37-.46-.56-.13-.19-.28-.4-.46-.65v6.34s-.02,.08-.05,.12c-.03,.03-.08,.05-.13,.05h-.7c-.18,.01-.27-.08-.27-.25v-15.65Zm11.64,5.9c0-.71-.14-1.4-.41-2.05-.27-.65-.65-1.22-1.12-1.71s-1.03-.88-1.66-1.17c-.63-.29-1.31-.43-2.03-.43s-1.42,.14-2.07,.42-1.22,.66-1.71,1.14c-.49,.48-.88,1.05-1.16,1.7-.28,.65-.42,1.34-.42,2.08s.14,1.41,.41,2.06c.27,.65,.65,1.23,1.13,1.72,.48,.49,1.04,.88,1.69,1.18,.64,.29,1.33,.43,2.06,.43s1.42-.14,2.06-.43,1.2-.68,1.68-1.17c.48-.49,.85-1.06,1.13-1.71s.42-1.34,.42-2.07Z"/><path class="e" d="M204.43,164.36c0-.59,.08-1.16,.23-1.71,.16-.55,.37-1.07,.65-1.54,.28-.48,.62-.92,1.02-1.31s.83-.73,1.31-1.01c.48-.28,.99-.5,1.54-.65,.55-.16,1.12-.23,1.71-.23s1.16,.08,1.71,.23c.55,.15,1.06,.37,1.54,.65,.48,.28,.92,.62,1.32,1.01,.4,.4,.74,.83,1.02,1.31,.28,.48,.5,.99,.66,1.54,.15,.55,.23,1.12,.23,1.71s-.08,1.16-.23,1.71c-.16,.55-.38,1.07-.66,1.55-.28,.48-.62,.92-1.02,1.31s-.84,.73-1.32,1.01c-.48,.28-.99,.5-1.54,.66-.55,.15-1.12,.23-1.71,.23s-1.16-.08-1.71-.23c-.55-.16-1.06-.38-1.54-.66-.48-.28-.92-.62-1.31-1.01-.4-.39-.73-.83-1.02-1.31-.28-.48-.5-1-.65-1.55-.15-.55-.23-1.12-.23-1.71Zm1.18,0c0,.48,.06,.94,.19,1.39,.12,.45,.3,.87,.53,1.27,.22,.4,.5,.76,.81,1.09,.32,.33,.68,.61,1.06,.85,.39,.24,.81,.42,1.25,.55,.44,.13,.91,.19,1.39,.19,.73,0,1.42-.14,2.06-.42s1.21-.66,1.7-1.14,.87-1.05,1.15-1.69c.28-.65,.43-1.34,.43-2.08s-.14-1.41-.41-2.06c-.28-.65-.65-1.22-1.13-1.72-.48-.49-1.04-.88-1.68-1.17-.64-.29-1.33-.44-2.06-.44s-1.41,.14-2.06,.43c-.65,.29-1.21,.68-1.69,1.17-.48,.49-.86,1.06-1.14,1.71-.28,.65-.42,1.34-.42,2.07Z"/><path class="e" d="M231.91,170.1c0,.06,0,.11,0,.15v.21c0,.06-.03,.11-.07,.14-.05,.03-.11,.06-.17,.08-.07,.02-.14,.03-.2,.04-.07,0-.12,0-.16,0-.35,0-.69-.05-1.01-.14-.32-.09-.6-.23-.84-.43-.24-.2-.43-.46-.57-.77-.14-.32-.21-.7-.21-1.14v-9.1h-1.7c-.11,0-.19-.03-.25-.07-.05-.04-.08-.12-.08-.24v-.46c0-.11,.03-.19,.08-.23,.05-.04,.14-.06,.25-.06h1.7v-3.1c0-.07,.03-.12,.08-.16,.03-.02,.05-.04,.09-.05,0,0,.02-.01,.07-.03,.05-.03,.11-.05,.19-.08s.14-.05,.22-.07c.08-.03,.13-.03,.17-.03,.13,0,.22,.03,.26,.1,.04,.06,.06,.15,.06,.27v3.16h2.21c.22,0,.32,.11,.32,.32v.39c0,.23-.11,.35-.32,.35h-2.21v8.32c0,.29,0,.56,.03,.81,.02,.26,.07,.48,.14,.68s.17,.35,.31,.46,.32,.17,.55,.17h.22c.2,0,.35,0,.46,.03,.11,.02,.19,.05,.24,.1,.06,.04,.09,.1,.11,.17s.02,.15,.02,.23v-.03Z"/><path class="e" d="M243.37,164.77c.02,.11,.04,.26,.05,.45,0,.19,.04,.36,.08,.53,.16,.59,.41,1.12,.72,1.61,.32,.49,.7,.9,1.14,1.25s.93,.62,1.47,.82c.54,.19,1.11,.3,1.72,.3,.35,0,.67-.03,.97-.08,.3-.05,.58-.13,.84-.22,.26-.1,.51-.21,.74-.34,.24-.13,.46-.27,.67-.43,.07-.04,.14-.08,.2-.14,.07-.06,.14-.11,.2-.16,.06-.05,.13-.09,.18-.13,.05-.04,.11-.05,.15-.05,.05,0,.11,.04,.18,.13,.11,.16,.19,.28,.24,.37,.05,.08,.08,.15,.08,.19,0,.03-.01,.05-.04,.08,.03,.03,.05,.07,.05,.1-.07,.09-.16,.19-.27,.29s-.23,.2-.38,.3c-.53,.38-1.11,.67-1.72,.89s-1.29,.32-2.02,.32c-.89,0-1.72-.17-2.51-.51s-1.47-.8-2.06-1.39-1.06-1.27-1.4-2.06c-.35-.78-.52-1.61-.52-2.5,0-.6,.08-1.17,.23-1.73,.15-.55,.36-1.07,.64-1.54,.28-.48,.61-.92,1-1.31,.39-.39,.83-.73,1.31-1.01,.48-.28,1-.5,1.55-.65,.56-.16,1.14-.23,1.75-.23,.57,0,1.12,.07,1.66,.21s1.04,.34,1.51,.6c.47,.27,.9,.59,1.3,.97,.39,.38,.73,.81,1.01,1.29,.28,.48,.51,1.01,.67,1.58,.16,.58,.25,1.2,.27,1.85h0s0,0,0,.02c0,0,0,.02,0,.03,0,.22-.1,.33-.31,.33h-11.38Zm3.86-5.56c-.5,.13-.97,.34-1.4,.62-.43,.28-.82,.62-1.15,1-.34,.39-.62,.81-.84,1.29-.22,.47-.38,.97-.47,1.49h10.54c-.08-.66-.27-1.27-.58-1.83-.31-.56-.7-1.05-1.18-1.46-.47-.41-1.01-.73-1.61-.97s-1.23-.35-1.89-.35c-.22,0-.44,.01-.65,.03-.21,.03-.46,.08-.77,.16Z"/><path class="e" d="M266.97,158.49c0-.12,.03-.21,.11-.27,.07-.06,.16-.09,.27-.09h.4c.12,0,.21,.03,.27,.11,.06,.07,.09,.15,.09,.26v1.45c.28-.43,.6-.78,.95-1.05,.35-.27,.72-.49,1.09-.64,.38-.15,.74-.26,1.11-.31,.36-.06,.7-.08,1.01-.08,.76,0,1.44,.14,2.07,.41,.62,.27,1.16,.65,1.6,1.13,.44,.48,.78,1.04,1.03,1.68,.24,.64,.36,1.32,.36,2.04v7.03c0,.14-.03,.25-.11,.32s-.17,.11-.28,.11h-.36c-.15,0-.25-.03-.3-.1-.05-.06-.08-.17-.08-.32v-7.07c-.02-.51-.12-1.01-.31-1.5-.18-.49-.44-.92-.78-1.3-.34-.38-.75-.69-1.23-.92-.49-.24-1.04-.35-1.67-.35-.51,0-1,.09-1.49,.28-.48,.19-.92,.45-1.3,.79-.38,.34-.69,.74-.93,1.22s-.37,1-.39,1.57v7.41c0,.21-.1,.32-.3,.32h-.51c-.21,0-.31-.11-.31-.32v-2.73s-.01-.06-.01-.11v-8.94Z"/><path class="e" d="M298.77,160.39s-.03,.03-.05,.05c-.02,.02-.05,.03-.08,.03-.05,0-.11-.03-.19-.11-.08-.08-.21-.19-.38-.35s-.41-.3-.69-.46c-.29-.16-.64-.29-1.05-.41s-.89-.17-1.44-.17c-.7,0-1.36,.14-2,.42-.64,.28-1.2,.67-1.69,1.15-.49,.49-.87,1.06-1.16,1.71-.29,.65-.43,1.34-.43,2.07s.14,1.42,.42,2.07c.28,.65,.66,1.22,1.14,1.71,.48,.49,1.04,.89,1.67,1.17,.63,.29,1.3,.43,2.01,.43,.35,0,.67-.03,.97-.08,.3-.05,.57-.13,.84-.22,.26-.1,.51-.21,.74-.34s.46-.27,.68-.43c.05-.03,.11-.08,.17-.13s.14-.11,.21-.16c.07-.05,.13-.09,.19-.13,.06-.03,.11-.05,.15-.05,.06,0,.13,.04,.2,.12,.11,.15,.19,.27,.24,.36,.05,.09,.08,.15,.08,.2,0,.03-.01,.05-.04,.08,.03,.04,.04,.07,.04,.1-.15,.2-.35,.39-.63,.58-.53,.38-1.1,.67-1.72,.89-.61,.22-1.29,.32-2.02,.32-.59,0-1.15-.08-1.7-.23-.55-.15-1.06-.37-1.54-.65-.48-.28-.92-.62-1.32-1.01-.4-.4-.74-.83-1.02-1.31-.29-.48-.51-.99-.67-1.54s-.24-1.12-.24-1.71,.08-1.16,.24-1.71,.38-1.07,.67-1.54c.28-.48,.62-.92,1.02-1.31,.4-.39,.84-.73,1.32-1.01,.48-.28,.99-.5,1.54-.65,.55-.16,1.11-.23,1.7-.23,.39,0,.78,.04,1.16,.11,.38,.08,.74,.18,1.09,.31,.35,.13,.68,.29,.98,.47s.59,.38,.85,.59h0l.02,.02c.06,.05,.11,.1,.16,.15s.07,.11,.07,.18c0,.06-.04,.15-.13,.24l-.36,.43Z"/><path class="e" d="M310.5,154.49c0-.13,.02-.23,.05-.3,.03-.08,.11-.13,.22-.14h.72c.13,.01,.21,.06,.24,.14,.03,.08,.05,.18,.05,.3v.38c0,.19-.03,.31-.09,.36-.06,.05-.18,.08-.36,.08h-.35c-.17,0-.3-.03-.37-.07s-.11-.13-.11-.24v-.5Zm.06,3.95c0-.21,.11-.32,.31-.32h.52c.21,0,.32,.11,.32,.32v11.82c0,.21-.1,.32-.31,.32h-.51c-.22,0-.33-.11-.33-.32v-11.82Z"/><path class="e" d="M335.52,168.61l-.03-.75c-.26,.45-.58,.86-.95,1.22-.37,.37-.79,.68-1.23,.93-.45,.25-.93,.45-1.44,.59-.51,.14-1.04,.21-1.6,.21-.59,0-1.16-.08-1.71-.23-.55-.16-1.06-.38-1.54-.66-.48-.29-.92-.63-1.32-1.02s-.73-.83-1.02-1.31c-.28-.48-.5-1-.65-1.54-.16-.54-.23-1.11-.23-1.71s.08-1.16,.23-1.71c.15-.55,.37-1.06,.66-1.54,.29-.48,.62-.92,1.02-1.31,.4-.39,.83-.73,1.31-1.02,.48-.29,.99-.51,1.54-.66,.55-.15,1.12-.23,1.71-.23,.54,0,1.06,.07,1.58,.21,.52,.14,1,.34,1.46,.6,.45,.26,.87,.57,1.25,.94,.38,.37,.7,.78,.97,1.23v-2.42c0-.21,.1-.32,.3-.32h.51c.22,0,.34,.11,.34,.32v11.84c0,.11-.04,.19-.11,.24-.07,.05-.16,.08-.26,.08h-.4c-.26,0-.38-.12-.38-.35v-1.62Zm.06-4.26c0-.72-.14-1.4-.43-2.04-.29-.65-.68-1.22-1.16-1.7-.49-.49-1.05-.88-1.7-1.17-.64-.29-1.32-.43-2.03-.44h-.03c-.7,0-1.37,.15-2,.43s-1.19,.68-1.67,1.16c-.48,.49-.86,1.06-1.14,1.7-.28,.65-.42,1.33-.42,2.04s.14,1.4,.41,2.05c.27,.65,.65,1.23,1.12,1.72,.47,.5,1.03,.89,1.66,1.18s1.31,.44,2.03,.44,1.42-.14,2.07-.43c.65-.28,1.22-.67,1.71-1.16s.87-1.06,1.16-1.71c.29-.65,.43-1.34,.43-2.08Z"/><path class="e" d="M348.7,154.65c0-.2,.11-.3,.32-.3h.51c.22,0,.32,.1,.32,.3v15.62c0,.21-.1,.31-.31,.31h-.51c-.22,0-.32-.1-.32-.31v-15.62Z"/></g><rect class="e" y="137.93" width="392.46" height="2.81"/><g><path class="e" d="M14.42,116.57v10.97h-5.46v-10.71L0,97.95H5.99l5.62,11.83,5.57-11.83h5.99l-8.75,18.61Zm0,0l8.75-18.61-8.75,18.61Z"/><path class="e" d="M57.42,101.35c2.92,2.92,4.61,6.74,4.61,11.13s-1.7,8.22-4.61,11.14c-2.92,2.91-6.73,4.61-11.13,4.61s-8.22-1.7-11.13-4.61c-2.92-2.92-4.61-6.74-4.61-11.14s1.7-8.22,4.61-11.13,6.73-4.61,11.13-4.61,8.22,1.7,11.13,4.61Zm-11.13,.8c-2.81,0-5.36,1.16-7.26,3.07-1.91,1.91-3.08,4.46-3.08,7.26s1.17,5.41,3.08,7.32c1.85,1.86,4.45,3.02,7.26,3.02s5.41-1.11,7.31-3.02c1.91-1.91,3.03-4.4,3.03-7.32s-1.17-5.41-3.03-7.26-4.4-3.07-7.31-3.07Z"/><path class="e" d="M77.88,97.69v17.34c0,1.7-.05,3.39,.53,4.61,.42,.9,1.06,1.65,1.91,2.17,.79,.53,1.7,.8,2.65,.8,.85,0,1.7-.21,2.49-.69,.8-.43,1.44-1.06,1.91-1.86,.79-1.27,.69-3.02,.69-4.77v-17.6h5.46v17.6c0,2.49,0,4.98-1.49,7.53-1,1.65-2.28,2.92-3.87,3.82-1.54,.9-3.29,1.38-5.2,1.38-2.07,0-3.93-.53-5.62-1.64-1.75-1.11-2.97-2.55-3.87-4.4-1.16-2.38-1.06-4.72-1.06-7,.05-.43,.05-.85,.05-1.22v-16.07h5.41Zm0,0h0Z"/><path class="e" d="M124.85,97.74v29.69l-4.72-4.93-11.18-11.51v16.38h-5.41v-29.64l4.72,4.93,11.19,11.51v-16.44h5.41Zm-5.41,0h0Z"/><path class="e" d="M148.39,112.32h16.44v.05c0,4.4-1.44,8.22-4.35,11.13-2.97,2.97-7,4.72-11.45,4.72s-8.27-1.64-11.13-4.61c-2.87-2.92-4.61-6.74-4.61-11.14s1.75-8.22,4.61-11.13c2.86-2.97,6.84-4.61,11.13-4.61,2.6,0,5.04,.59,7.16,1.7,2.28,1.17,4.19,2.76,5.62,4.83l-4.4,3.18c-.95-1.33-2.17-2.33-3.66-3.13-1.49-.79-3.08-1.16-4.72-1.16-2.81,0-5.41,1.16-7.26,3.07-1.86,1.86-3.02,4.46-3.02,7.26s1.16,5.41,3.02,7.32c1.86,1.86,4.45,3.02,7.26,3.02,2.97,0,5.67-1.22,7.58-3.13,.59-.58,1.06-1.22,1.49-1.86l-9.7-.11v-5.41Zm0,0v0Z"/><path class="e" d="M195.1,97.69v24.34h9.97v5.46h-9.97v.05h-5.41v-29.85h5.41Zm0,0h0Z"/><path class="e" d="M219.01,110.04h8.06v5.41h-8.06v6.63h10.82v5.46h-16.22v-29.9h16.22v5.41h-10.82v7Zm0-7v0Z"/><path class="e" d="M259.3,120.75h-10.5l-3.18,6.79h-5.94l11.72-24.81,2.44-5.15,2.49,5.09,12.25,24.87h-5.94l-3.34-6.79Zm-8.06-5.09h5.52l-2.81-5.78-2.71,5.78Zm2.71-5.78l-2.71,5.78,2.71-5.78Z"/><path class="e" d="M275.42,97.69v.05h3.45c4.08,0,7.85,1.64,10.55,4.35,2.7,2.71,4.35,6.36,4.35,10.55s-1.65,7.85-4.35,10.55c-2.71,2.71-6.47,4.35-10.55,4.35h-8.86v-29.85h5.41Zm-5.41,0h0Zm5.41,5.46v18.98h3.45c2.6,0,4.98-1.11,6.68-2.81,1.7-1.7,2.81-4.08,2.81-6.68s-1.11-4.98-2.81-6.68c-1.7-1.75-4.09-2.81-6.68-2.81h-3.45Z"/><path class="e" d="M309.09,110.04h8.06v5.41h-8.06v6.63h10.81v5.46h-16.22v-29.9h16.22v5.41h-10.81v7Zm0-7v0Z"/><path class="e" d="M347.84,127.54h-6.31l-6.04-10.13h-.79v10.13h-5.41v-29.85h5.41v.05h2.55c2.7,0,5.14,1.01,6.94,2.86,1.8,1.91,2.92,4.24,2.92,6.95s-1.06,5.2-2.92,6.95c-.9,.9-1.85,1.54-2.92,2.01l6.58,11.03Zm-13.15-15.59h2.55c1.22,0,2.28-.43,3.13-1.27s1.27-1.91,1.27-3.13-.42-2.22-1.27-3.13c-.85-.85-1.91-1.27-3.13-1.27h-2.55v8.8Z"/><path class="e" d="M369.63,104.95c-.37-.64-.9-1.06-1.54-1.44-.85-.37-1.64-.53-2.44-.42-.69,.11-1.27,.42-1.75,.9s-.74,1.06-.8,1.75c-.05,.48,0,.95,.21,1.33,.16,.37,.48,.79,.96,1.22,.37,.27,.79,.48,1.16,.64,.58,.21,1.06,.37,1.64,.53,.74,.22,1.49,.37,2.23,.69,.85,.32,1.7,.79,2.49,1.48,1.22,.96,2.12,2.07,2.71,3.39,.64,1.44,.85,2.76,.74,4.19-.21,2.07-1.01,3.87-2.44,5.41-1.33,1.43-3.13,2.39-5.3,2.65-1.91,.27-3.98,0-5.83-.9-1.7-.8-3.29-2.12-4.24-3.98-.32-.59-.48-1.01-.69-1.59-.16-.48-.27-1.06-.37-1.75l5.36-.74c.05,.37,.16,.64,.21,.8,.05,.16,.11,.42,.27,.69,.48,.8,1.06,1.38,1.8,1.7,.9,.43,1.91,.58,2.81,.43,.85-.16,1.48-.48,2.07-1.06,.53-.53,.85-1.22,.95-2.07,0-.58-.05-1.06-.27-1.54s-.53-1.01-1.17-1.38c-.32-.37-.74-.53-1.11-.69-.59-.21-1.06-.37-1.65-.53-.79-.16-1.54-.42-2.22-.69-.9-.32-1.7-.85-2.55-1.49-1.17-.95-1.91-1.96-2.49-3.18-.58-1.33-.85-2.65-.74-3.98,.16-1.86,1.01-3.66,2.33-5.09,1.27-1.27,2.92-2.23,4.98-2.49,1.86-.27,3.76,.05,5.46,.85,1.64,.79,2.97,2.01,3.98,3.76l-4.77,2.6Zm0,0l4.77-2.6-4.77,2.6Z"/></g></g><g><path class="d" d="M86.95,38.27c-.13-1.37-.37-2.74-.67-4.07l-3.64,.53c.23,1,.43,2,.53,3.01,.17,1.27,.27,2.54,.27,3.84,0,16.37-13.26,29.59-29.59,29.59s-29.59-13.23-29.59-29.59,13.23-29.59,29.59-29.59c7.21,0,13.83,2.57,18.94,6.88,3.94,3.27,7.01,7.55,8.82,12.42l-.03-8.12c-1.97-2.97-4.41-5.58-7.21-7.78-5.64-4.44-12.76-7.08-20.51-7.08-18.4,0-33.3,14.9-33.3,33.27s14.9,33.3,33.3,33.3,33.27-14.9,33.27-33.3c0-1.1-.07-2.2-.17-3.31Z"/><circle class="d" cx="83.43" cy="75.9" r="8.79"/><circle class="d" cx="12.66" cy="56.13" r="8.79"/><circle class="d" cx="26.81" cy="6.26" r="6.26"/><path class="d" d="M50.23,48.72l-15.48-26.94h8.23l10.84,18.96,10.88-18.96h8.24l-15.55,26.94v20.49h-7.16v-20.49Z"/><path class="d" d="M87.11,8.27c-5.38,0-10.12,2.84-12.76,7.11-.67,1.07-1.2,2.24-1.57,3.47-.43,1.37-.67,2.87-.67,4.41,0,6.91,4.68,12.73,11.06,14.46,1.2,.33,2.47,.53,3.77,.53h.17c8.28,0,15-6.71,15-15s-6.71-15-15-15Zm-.83,25.92l-3.64,.53-1.04,.13v-3.57l-.03-8.12-.03-10.96,4.88-.7,.07,18.04,9.05-1.3,.03,4.61-9.29,1.34Z"/></g></g></g></g></svg>